<?xml version="1.0" encoding="UTF-8"?>
<svg version="1.1" xmlns="http://www.w3.org/2000/svg" width="1200" height="1200">
<path d="M0 0 C1.42972641 -0.00101212 1.42972641 -0.00101212 2.88833618 -0.00204468 C61.61499323 0.06320242 119.41906681 10.58970981 174.625 30.5625 C189.51211542 36.08212068 203.95757468 42.48264682 218.3125 49.25 C219.24239746 49.68666992 220.17229492 50.12333984 221.13037109 50.57324219 C239.03794882 59.05454003 256.04224419 69.22453918 272.8125 79.75 C273.55894775 80.21776855 274.30539551 80.68553711 275.07446289 81.16748047 C280.00206383 84.3014414 284.68871145 87.68414423 289.3125 91.25 C288.0467682 94.68587968 286.59487096 97.53318877 284.4765625 100.515625 C283.63134033 101.71384888 283.63134033 101.71384888 282.76904297 102.9362793 C282.16463379 103.78230713 281.56022461 104.62833496 280.9375 105.5 C280.31117676 106.38534424 279.68485352 107.27068848 279.03955078 108.18286133 C277.75177243 110.00246315 276.46189117 111.8205785 275.16992188 113.63720703 C272.9881126 116.70630836 270.81846625 119.78383893 268.64990234 122.86230469 C266.69620495 125.63466326 264.73815004 128.4039319 262.78027344 131.17333984 C260.28929014 134.69767516 257.80105097 138.22394701 255.3125 141.75 C254.31251278 143.16667568 253.31251278 144.58334236 252.3125 146 C251.8175 146.70125 251.3225 147.4025 250.8125 148.125 C249.3125 150.25 247.8125 152.375 246.3125 154.5 C245.81758057 155.20116943 245.32266113 155.90233887 244.81274414 156.62475586 C243.81205812 158.04232654 242.81124417 159.45980692 241.81030273 160.87719727 C239.31974549 164.40430572 236.83138408 167.93292217 234.34765625 171.46484375 C229.24017914 178.72235112 224.09204977 185.94579586 218.875 193.125 C213.85087571 200.04394544 208.99373056 207.0627537 204.19213867 214.13745117 C199.93282181 220.39338292 195.52953404 226.53363074 191.07543945 232.65185547 C185.67580229 240.08555157 180.47773108 247.65224526 175.3125 255.25 C170.45675946 252.64871043 165.75829551 249.9166107 161.12719727 246.93115234 C142.56676731 235.03098492 122.9644671 225.89411846 102.3125 218.25 C101.50506348 217.94868164 100.69762695 217.64736328 99.86572266 217.33691406 C70.22351411 206.42590818 38.08396214 201.23673962 6.55541992 201.00830078 C-27.69020276 200.8975365 -61.12646232 205.29334885 -93.6875 216.25 C-94.52700195 216.52505371 -95.36650391 216.80010742 -96.23144531 217.08349609 C-127.52889183 227.4246017 -156.60046867 243.3815964 -182.59619141 263.59472656 C-188.12210162 267.9684916 -193.45748859 272.52759864 -198.6875 277.25 C-199.30077148 277.80155762 -199.91404297 278.35311523 -200.54589844 278.92138672 C-213.92299997 291.01262204 -225.83844601 303.85201818 -236.6875 318.25 C-237.18862305 318.90532715 -237.68974609 319.5606543 -238.20605469 320.23583984 C-259.68342419 348.42405098 -274.76992288 379.92174883 -285.40234375 413.6171875 C-295.66374116 447.26769186 -299.20282302 482.1860568 -297.6875 517.25 C-296.23790827 543.78893755 -291.16293154 570.06266475 -282.6875 595.25 C-282.27491943 596.50925293 -282.27491943 596.50925293 -281.85400391 597.79394531 C-271.5128983 629.09139183 -255.5559036 658.16296867 -235.34277344 684.15869141 C-230.9690084 689.68460162 -226.40990136 695.01998859 -221.6875 700.25 C-221.13594238 700.86327148 -220.58438477 701.47654297 -220.01611328 702.10839844 C-207.92487796 715.48549997 -195.08548182 727.40094601 -180.6875 738.25 C-179.70450928 739.00168457 -179.70450928 739.00168457 -178.70166016 739.76855469 C-150.30788008 761.4025528 -118.66051074 776.39143557 -84.75439453 787.18359375 C-51.31305974 797.48967527 -16.52380785 800.64539938 18.3125 799.25 C52.6211709 797.31950223 86.55769843 789.39216135 118.3125 776.25 C136.85044198 768.21102757 155.84215666 758.99387174 171.71655273 746.34716797 C172.24321533 745.98510254 172.76987793 745.62303711 173.3125 745.25 C173.9725 745.25 174.6325 745.25 175.3125 745.25 C177.00181124 747.50856913 178.57347486 749.77368303 180.125 752.125 C181.1217229 753.60679914 182.12049957 755.08721846 183.12109375 756.56640625 C183.64429199 757.34000488 184.16749023 758.11360352 184.70654297 758.91064453 C187.29459504 762.68059207 189.99153846 766.36934622 192.6875 770.0625 C197.17014426 776.2215641 201.53468256 782.44703529 205.8125 788.75 C210.59482507 795.79358397 215.50087435 802.7318515 220.50561523 809.61889648 C225.68290803 816.7444062 230.76218652 823.93653082 235.82861328 831.14111328 C238.31898786 834.68041167 240.81609792 838.21495184 243.3125 841.75 C244.31253195 843.16664412 245.31253196 844.58331078 246.3125 846 C246.8075 846.70125 247.3025 847.4025 247.8125 848.125 C253.3125 855.91666667 258.8125 863.70833333 264.3125 871.5 C264.80814453 872.20213623 265.30378906 872.90427246 265.81445312 873.62768555 C266.80804509 875.03532813 267.80153573 876.44304224 268.79492188 877.85083008 C271.3921114 881.53117733 273.99138339 885.21002999 276.59375 888.88671875 C277.13257813 889.64855469 277.67140625 890.41039062 278.2265625 891.1953125 C279.25194807 892.64499554 280.27794782 894.09424444 281.3046875 895.54296875 C282.22273842 896.84142751 283.13703037 898.1425552 284.046875 899.44677734 C284.87660158 900.62894566 285.71999752 901.80166235 286.578125 902.96337891 C287.71875 904.55078125 287.71875 904.55078125 289.3125 907.25 C288.9825 908.24 288.6525 909.23 288.3125 910.25 C286.86401367 911.50170898 286.86401367 911.50170898 284.98046875 912.74609375 C284.2750293 913.21595703 283.56958984 913.68582031 282.84277344 914.16992188 C282.0696582 914.67072266 281.29654297 915.17152344 280.5 915.6875 C279.6946582 916.21537109 278.88931641 916.74324219 278.05957031 917.28710938 C228.29938037 949.64178745 173.97019428 973.77084743 116.15966797 987.37548828 C58.38152609 1000.50921745 -1.18372055 1004.30839714 -60.04302979 996.95574951 C-120.21744341 989.19046463 -177.77741025 970.99457619 -231.75 943.1875 C-259.75904021 928.5318651 -286.05019835 911.03236927 -310.6875 891.25 C-311.66847656 890.46496094 -312.64945313 889.67992187 -313.66015625 888.87109375 C-318.95141387 884.59194729 -324.08288492 880.17751151 -329.10546875 875.5859375 C-331.20466131 873.68681927 -333.32439666 871.82137163 -335.4609375 869.96484375 C-345.26145152 861.405583 -354.98621671 852.57161962 -363.51953125 842.734375 C-365.6702 840.26982487 -367.88297213 837.87909897 -370.11791992 835.49145508 C-375.91952076 829.28557407 -381.38630355 822.89203508 -386.6875 816.25 C-387.62005908 815.10852891 -388.55371236 813.96795116 -389.48828125 812.828125 C-397.01120476 803.6076707 -403.95893329 794.06229829 -410.6875 784.25 C-411.33283691 783.31486572 -411.33283691 783.31486572 -411.99121094 782.36083984 C-444.24856385 735.48569352 -468.31498835 682.7262731 -482.63793945 627.67456055 C-493.23695647 586.29247518 -498.90993377 544.31398872 -498.9375 501.5625 C-498.93817474 500.60934906 -498.93884949 499.65619812 -498.93954468 498.67416382 C-498.89544693 458.98330672 -494.22229811 419.79866231 -484.6875 381.25 C-484.42743164 380.19329102 -484.16736328 379.13658203 -483.89941406 378.04785156 C-469.88146967 321.89028486 -446.0108008 268.27610308 -413.6875 220.25 C-401.44995562 202.40554051 -388.0632298 185.41271288 -373.6875 169.25 C-372.945 168.40695312 -372.2025 167.56390625 -371.4375 166.6953125 C-351.92508078 144.74384087 -351.92508078 144.74384087 -341.2265625 135.4765625 C-339.26252018 133.75424846 -337.35500222 132.00781406 -335.4609375 130.2109375 C-328.093118 123.22408717 -320.50349793 116.79048561 -312.4453125 110.61816406 C-310.69983488 109.25960065 -308.98729008 107.86861621 -307.28125 106.4609375 C-290.21748318 92.41081353 -271.83222429 80.26050253 -252.6875 69.25 C-252.01235352 68.85796387 -251.33720703 68.46592773 -250.64160156 68.06201172 C-246.02808641 65.38719147 -241.37356911 62.79539221 -236.6875 60.25 C-235.43791504 59.5698584 -235.43791504 59.5698584 -234.16308594 58.87597656 C-184.03407626 31.75522214 -129.33488029 13.9307503 -73.03515625 5.27734375 C-48.78181853 1.76806011 -24.49045444 0.01579149 0 0 Z " fill="#000000" transform="translate(598.6875,99.75)"/>
</svg>
