<?xml version="1.0" encoding="UTF-8" standalone="no"?>
<!-- Created with Inkscape (http://www.inkscape.org/) -->

<svg
   width="3840"
   height="2160"
   viewBox="0 0 1016 571.5"
   version="1.1"
   id="svg499"
   xml:space="preserve"
   inkscape:version="1.2.2 (b0a8486541, 2022-12-01)"
   sodipodi:docname="lonunjie-banner.svg"
   inkscape:export-filename="lonunjie-banner-plain.png"
   inkscape:export-xdpi="96"
   inkscape:export-ydpi="96"
   xmlns:inkscape="http://www.inkscape.org/namespaces/inkscape"
   xmlns:sodipodi="http://sodipodi.sourceforge.net/DTD/sodipodi-0.dtd"
   xmlns="http://www.w3.org/2000/svg"
   xmlns:svg="http://www.w3.org/2000/svg"><sodipodi:namedview
     id="namedview501"
     pagecolor="#ffffff"
     bordercolor="#000000"
     borderopacity="0.25"
     inkscape:showpageshadow="2"
     inkscape:pageopacity="0.0"
     inkscape:pagecheckerboard="true"
     inkscape:deskcolor="#d1d1d1"
     inkscape:document-units="mm"
     showgrid="false"
     inkscape:zoom="0.34965979"
     inkscape:cx="1750.2727"
     inkscape:cy="1079.6208"
     inkscape:window-width="1920"
     inkscape:window-height="1011"
     inkscape:window-x="0"
     inkscape:window-y="0"
     inkscape:window-maximized="1"
     inkscape:current-layer="layer1" /><defs
     id="defs496"><clipPath
       clipPathUnits="userSpaceOnUse"
       id="clipPath628"><rect
         style="fill:#ff0000;stroke-width:0.221309"
         id="rect630"
         width="208.49167"
         height="208.49167"
         x="403.75418"
         y="77.258331"
         inkscape:label="clip black" /></clipPath></defs><g
     inkscape:label="Layer 1"
     inkscape:groupmode="layer"
     id="layer1"><rect
       style="fill:#ffffff;stroke-width:0.174041"
       id="rect503"
       width="1016"
       height="285.75"
       x="0"
       y="0"
       inkscape:label="white" /><rect
       style="fill:#000000;stroke-width:0.174041"
       id="rect505"
       width="1016"
       height="285.75"
       x="0"
       y="285.75"
       inkscape:label="black" /><path
       d="m 535.71358,153.45887 c 0.37804,-2.7e-4 0.37804,-2.7e-4 0.7637,-5.4e-4 15.52782,0.0173 30.81171,2.80055 45.40862,8.08152 3.93629,1.45944 7.75579,3.15179 11.55135,4.94114 0.24588,0.11546 0.49175,0.23091 0.74508,0.34987 4.73491,2.24253 9.23098,4.93156 13.66518,7.71458 0.19737,0.12369 0.39474,0.24737 0.59808,0.37479 1.3029,0.82866 2.54209,1.72307 3.76466,2.66591 -0.33466,0.90848 -0.71856,1.66133 -1.27866,2.44991 -0.22348,0.31682 -0.22348,0.31682 -0.45148,0.64005 -0.15982,0.22369 -0.31962,0.44739 -0.48428,0.67786 -0.1656,0.23409 -0.3312,0.46819 -0.50183,0.70937 -0.3405,0.48112 -0.68156,0.96184 -1.02316,1.44217 -0.57689,0.81151 -1.15056,1.62523 -1.72395,2.4392 -0.51657,0.73304 -1.0343,1.46525 -1.55198,2.19751 -0.65864,0.93186 -1.31654,1.86423 -1.97454,2.79656 -0.2644,0.37458 -0.52882,0.74915 -0.79322,1.12373 -0.13089,0.18542 -0.26177,0.37084 -0.39662,0.56187 -0.39661,0.56187 -0.79323,1.12374 -1.18984,1.68561 -0.13086,0.18538 -0.26172,0.37078 -0.39654,0.5618 -0.2646,0.37482 -0.52922,0.74961 -0.79388,1.12438 -0.65852,0.9326 -1.31647,1.86559 -1.97318,2.79946 -1.35046,1.91895 -2.71167,3.82889 -4.09111,5.72713 -1.32842,1.82943 -2.61269,3.68526 -3.88227,5.55587 -1.12619,1.65412 -2.29046,3.27766 -3.46816,4.89537 -1.42771,1.96553 -2.80214,3.96623 -4.16787,5.97514 -1.2839,-0.68781 -2.52621,-1.4102 -3.75071,-2.19958 -4.90754,-3.14651 -10.09055,-5.56237 -15.5511,-7.58354 -0.2135,-0.0797 -0.42699,-0.15934 -0.64695,-0.24142 -7.83765,-2.88496 -16.33562,-4.25703 -24.67203,-4.31743 -9.05483,-0.0293 -17.89566,1.133 -26.50508,4.03004 -0.22196,0.0728 -0.44394,0.14545 -0.67263,0.22038 -8.27531,2.73427 -15.96209,6.95344 -22.83557,12.29796 -1.4611,1.15646 -2.87182,2.36192 -4.25468,3.61057 -0.16216,0.14583 -0.32431,0.29167 -0.49138,0.44193 -3.53702,3.19702 -6.68756,6.59187 -9.55614,10.39881 -0.1325,0.17327 -0.265,0.34655 -0.40152,0.52507 -5.6788,7.4532 -9.6678,15.78146 -12.4791,24.69082 -2.71319,8.89747 -3.64895,18.13019 -3.2483,27.40139 0.38329,7.01712 1.72516,13.96412 3.96613,20.62386 0.1091,0.33295 0.1091,0.33295 0.22038,0.67264 2.73428,8.2753 6.95344,15.96208 12.29797,22.83556 1.15646,1.4611 2.36192,2.87182 3.61057,4.25469 0.14583,0.16215 0.29167,0.3243 0.44193,0.49137 3.19702,3.53702 6.59187,6.68756 10.39881,9.55614 0.25992,0.19876 0.25992,0.19876 0.52507,0.40152 7.50755,5.72021 15.87539,9.6834 24.84045,12.53694 8.84217,2.72501 18.04075,3.55942 27.25176,3.19046 9.0715,-0.51044 18.04461,-2.6065 26.44084,-6.0814 4.90159,-2.12557 9.92316,-4.56266 14.12048,-7.90656 0.13926,-0.0957 0.27851,-0.19146 0.42198,-0.2901 0.17452,0 0.34902,0 0.52882,0 0.44667,0.59719 0.86223,1.1961 1.27247,1.81781 0.26354,0.3918 0.52763,0.78323 0.7922,1.17435 0.13834,0.20454 0.27667,0.40909 0.41921,0.61984 0.6843,0.9968 1.3974,1.97213 2.11023,2.94864 1.18525,1.62851 2.33927,3.27457 3.47036,4.94113 1.26449,1.86238 2.56168,3.69692 3.88499,5.51791 1.36891,1.88404 2.71191,3.7857 4.05152,5.69065 0.65848,0.93582 1.31874,1.87039 1.97881,2.80509 0.26441,0.37457 0.52882,0.74915 0.79322,1.12373 0.13089,0.18542 0.26176,0.37084 0.39661,0.56187 1.45425,2.06018 2.9085,4.12037 4.36275,6.18054 0.13105,0.18566 0.2621,0.37131 0.39712,0.56258 0.26272,0.3722 0.52541,0.74441 0.78806,1.11664 0.68672,0.97311 1.37399,1.94584 2.06208,2.91798 0.14247,0.20144 0.28494,0.40288 0.43173,0.61041 0.27112,0.38332 0.5424,0.7665 0.81388,1.14956 0.24274,0.34332 0.48448,0.68735 0.72506,1.0322 0.21939,0.31258 0.44238,0.62265 0.66928,0.92982 0.30159,0.41972 0.30159,0.41972 0.72299,1.13342 -0.0872,0.26176 -0.17451,0.52352 -0.2644,0.79323 -0.383,0.33096 -0.383,0.33096 -0.88102,0.65998 -0.18652,0.12424 -0.37305,0.24848 -0.56522,0.37647 -0.20443,0.13242 -0.40884,0.26484 -0.61945,0.40127 -0.21294,0.13956 -0.42588,0.27914 -0.64528,0.42295 -13.157,8.55485 -27.52211,14.93477 -42.8077,18.53196 -15.27704,3.47266 -31.02659,4.4772 -46.58948,2.53309 -15.91063,-2.0532 -31.12997,-6.86435 -45.40077,-14.21677 -7.40583,-3.87508 -14.35743,-8.50209 -20.87175,-13.73272 -0.25937,-0.20756 -0.51875,-0.41514 -0.78599,-0.629 -1.39905,-1.13145 -2.75585,-2.29865 -4.08387,-3.51271 -0.55505,-0.50214 -1.11552,-0.99538 -1.68044,-1.48626 -2.59134,-2.26314 -5.16265,-4.59892 -7.41893,-7.19997 -0.56865,-0.65164 -1.15373,-1.28378 -1.74467,-1.91509 -1.53399,-1.64088 -2.97945,-3.33138 -4.38113,-5.0876 -0.24658,-0.30181 -0.49345,-0.60339 -0.74055,-0.90477 -1.98914,-2.43797 -3.82618,-4.96184 -5.60527,-7.5563 -0.17063,-0.24725 -0.17063,-0.24725 -0.34471,-0.49951 -8.52912,-12.39419 -14.89248,-26.34422 -18.67959,-40.90036 -2.80247,-10.94177 -4.30246,-22.04123 -4.30974,-33.34508 -1.8e-4,-0.25203 -3.6e-4,-0.50405 -5.4e-4,-0.76371 0.0117,-10.4946 1.24727,-20.85534 3.76836,-31.04794 0.0688,-0.2794 0.13753,-0.5588 0.20838,-0.84667 3.70646,-14.84854 10.01806,-29.02457 18.56462,-41.72308 3.23571,-4.71823 6.77528,-9.21127 10.57634,-13.48483 0.19632,-0.2229 0.39265,-0.44582 0.59492,-0.67549 5.15925,-5.80415 5.15925,-5.80415 7.98803,-8.2545 0.51931,-0.45538 1.02367,-0.91716 1.52448,-1.39226 1.94812,-1.84739 3.95487,-3.54849 6.08552,-5.18051 0.46153,-0.35921 0.91434,-0.727 1.36543,-1.0992 4.5118,-3.71497 9.37302,-6.92762 14.43504,-9.83888 0.17852,-0.10366 0.35703,-0.20732 0.54096,-0.31411 1.21985,-0.70726 2.45054,-1.39254 3.68958,-2.06557 0.3304,-0.17984 0.3304,-0.17984 0.66748,-0.36331 13.25453,-7.17095 27.71746,-11.88389 42.60358,-14.17192 6.41279,-0.92789 12.83563,-1.3912 19.31111,-1.39538 z"
       fill="#000000"
       id="path611"
       style="display:none;fill:#ffffff;stroke-width:0.264408"
       inkscape:label="C white" /><path
       d="m 535.71358,153.45887 c 0.37804,-2.7e-4 0.37804,-2.7e-4 0.7637,-5.4e-4 15.52782,0.0173 30.81171,2.80055 45.40862,8.08152 3.93629,1.45944 7.75579,3.15179 11.55135,4.94114 0.24588,0.11546 0.49175,0.23091 0.74508,0.34987 4.73491,2.24253 9.23098,4.93156 13.66518,7.71458 0.19737,0.12369 0.39474,0.24737 0.59808,0.37479 1.3029,0.82866 2.54209,1.72307 3.76466,2.66591 -0.33466,0.90848 -0.71856,1.66133 -1.27866,2.44991 -0.22348,0.31682 -0.22348,0.31682 -0.45148,0.64005 -0.15982,0.22369 -0.31962,0.44739 -0.48428,0.67786 -0.1656,0.23409 -0.3312,0.46819 -0.50183,0.70937 -0.3405,0.48112 -0.68156,0.96184 -1.02316,1.44217 -0.57689,0.81151 -1.15056,1.62523 -1.72395,2.4392 -0.51657,0.73304 -1.0343,1.46525 -1.55198,2.19751 -0.65864,0.93186 -1.31654,1.86423 -1.97454,2.79656 -0.2644,0.37458 -0.52882,0.74915 -0.79322,1.12373 -0.13089,0.18542 -0.26177,0.37084 -0.39662,0.56187 -0.39661,0.56187 -0.79323,1.12374 -1.18984,1.68561 -0.13086,0.18538 -0.26172,0.37078 -0.39654,0.5618 -0.2646,0.37482 -0.52922,0.74961 -0.79388,1.12438 -0.65852,0.9326 -1.31647,1.86559 -1.97318,2.79946 -1.35046,1.91895 -2.71167,3.82889 -4.09111,5.72713 -1.32842,1.82943 -2.61269,3.68526 -3.88227,5.55587 -1.12619,1.65412 -2.29046,3.27766 -3.46816,4.89537 -1.42771,1.96553 -2.80214,3.96623 -4.16787,5.97514 -1.2839,-0.68781 -2.52621,-1.4102 -3.75071,-2.19958 -4.90754,-3.14651 -10.09055,-5.56237 -15.5511,-7.58354 -0.2135,-0.0797 -0.42699,-0.15934 -0.64695,-0.24142 -7.83765,-2.88496 -16.33562,-4.25703 -24.67203,-4.31743 -9.05483,-0.0293 -17.89566,1.133 -26.50508,4.03004 -0.22196,0.0728 -0.44394,0.14545 -0.67263,0.22038 -8.27531,2.73427 -15.96209,6.95344 -22.83557,12.29796 -1.4611,1.15646 -2.87182,2.36192 -4.25468,3.61057 -0.16216,0.14583 -0.32431,0.29167 -0.49138,0.44193 -3.53702,3.19702 -6.68756,6.59187 -9.55614,10.39881 -0.1325,0.17327 -0.265,0.34655 -0.40152,0.52507 -5.6788,7.4532 -9.6678,15.78146 -12.4791,24.69082 -2.71319,8.89747 -3.64895,18.13019 -3.2483,27.40139 0.38329,7.01712 1.72516,13.96412 3.96613,20.62386 0.1091,0.33295 0.1091,0.33295 0.22038,0.67264 2.73428,8.2753 6.95344,15.96208 12.29797,22.83556 1.15646,1.4611 2.36192,2.87182 3.61057,4.25469 0.14583,0.16215 0.29167,0.3243 0.44193,0.49137 3.19702,3.53702 6.59187,6.68756 10.39881,9.55614 0.25992,0.19876 0.25992,0.19876 0.52507,0.40152 7.50755,5.72021 15.87539,9.6834 24.84045,12.53694 8.84217,2.72501 18.04075,3.55942 27.25176,3.19046 9.0715,-0.51044 18.04461,-2.6065 26.44084,-6.0814 4.90159,-2.12557 9.92316,-4.56266 14.12048,-7.90656 0.13926,-0.0957 0.27851,-0.19146 0.42198,-0.2901 0.17452,0 0.34902,0 0.52882,0 0.44667,0.59719 0.86223,1.1961 1.27247,1.81781 0.26354,0.3918 0.52763,0.78323 0.7922,1.17435 0.13834,0.20454 0.27667,0.40909 0.41921,0.61984 0.6843,0.9968 1.3974,1.97213 2.11023,2.94864 1.18525,1.62851 2.33927,3.27457 3.47036,4.94113 1.26449,1.86238 2.56168,3.69692 3.88499,5.51791 1.36891,1.88404 2.71191,3.7857 4.05152,5.69065 0.65848,0.93582 1.31874,1.87039 1.97881,2.80509 0.26441,0.37457 0.52882,0.74915 0.79322,1.12373 0.13089,0.18542 0.26176,0.37084 0.39661,0.56187 1.45425,2.06018 2.9085,4.12037 4.36275,6.18054 0.13105,0.18566 0.2621,0.37131 0.39712,0.56258 0.26272,0.3722 0.52541,0.74441 0.78806,1.11664 0.68672,0.97311 1.37399,1.94584 2.06208,2.91798 0.14247,0.20144 0.28494,0.40288 0.43173,0.61041 0.27112,0.38332 0.5424,0.7665 0.81388,1.14956 0.24274,0.34332 0.48448,0.68735 0.72506,1.0322 0.21939,0.31258 0.44238,0.62265 0.66928,0.92982 0.30159,0.41972 0.30159,0.41972 0.72299,1.13342 -0.0872,0.26176 -0.17451,0.52352 -0.2644,0.79323 -0.383,0.33096 -0.383,0.33096 -0.88102,0.65998 -0.18652,0.12424 -0.37305,0.24848 -0.56522,0.37647 -0.20443,0.13242 -0.40884,0.26484 -0.61945,0.40127 -0.21294,0.13956 -0.42588,0.27914 -0.64528,0.42295 -13.157,8.55485 -27.52211,14.93477 -42.8077,18.53196 -15.27704,3.47266 -31.02659,4.4772 -46.58948,2.53309 -15.91063,-2.0532 -31.12997,-6.86435 -45.40077,-14.21677 -7.40583,-3.87508 -14.35743,-8.50209 -20.87175,-13.73272 -0.25937,-0.20756 -0.51875,-0.41514 -0.78599,-0.629 -1.39905,-1.13145 -2.75585,-2.29865 -4.08387,-3.51271 -0.55505,-0.50214 -1.11552,-0.99538 -1.68044,-1.48626 -2.59134,-2.26314 -5.16265,-4.59892 -7.41893,-7.19997 -0.56865,-0.65164 -1.15373,-1.28378 -1.74467,-1.91509 -1.53399,-1.64088 -2.97945,-3.33138 -4.38113,-5.0876 -0.24658,-0.30181 -0.49345,-0.60339 -0.74055,-0.90477 -1.98914,-2.43797 -3.82618,-4.96184 -5.60527,-7.5563 -0.17063,-0.24725 -0.17063,-0.24725 -0.34471,-0.49951 -8.52912,-12.39419 -14.89248,-26.34422 -18.67959,-40.90036 -2.80247,-10.94177 -4.30246,-22.04123 -4.30974,-33.34508 -1.8e-4,-0.25203 -3.6e-4,-0.50405 -5.4e-4,-0.76371 0.0117,-10.4946 1.24727,-20.85534 3.76836,-31.04794 0.0688,-0.2794 0.13753,-0.5588 0.20838,-0.84667 3.70646,-14.84854 10.01806,-29.02457 18.56462,-41.72308 3.23571,-4.71823 6.77528,-9.21127 10.57634,-13.48483 0.19632,-0.2229 0.39265,-0.44582 0.59492,-0.67549 5.15925,-5.80415 5.15925,-5.80415 7.98803,-8.2545 0.51931,-0.45538 1.02367,-0.91716 1.52448,-1.39226 1.94812,-1.84739 3.95487,-3.54849 6.08552,-5.18051 0.46153,-0.35921 0.91434,-0.727 1.36543,-1.0992 4.5118,-3.71497 9.37302,-6.92762 14.43504,-9.83888 0.17852,-0.10366 0.35703,-0.20732 0.54096,-0.31411 1.21985,-0.70726 2.45054,-1.39254 3.68958,-2.06557 0.3304,-0.17984 0.3304,-0.17984 0.66748,-0.36331 13.25453,-7.17095 27.71746,-11.88389 42.60358,-14.17192 6.41279,-0.92789 12.83563,-1.3912 19.31111,-1.39538 z"
       fill="#000000"
       id="path620"
       style="display:none;stroke-width:0.264408"
       inkscape:label="C black"
       clip-path="url(#clipPath628)" /></g></svg>
